<svg xmlns:xlink="http://www.w3.org/1999/xlink" xmlns="http://www.w3.org/2000/svg" class="icon40" width="60.133"  height="54.375" ><defs><symbol xmlns="http://www.w3.org/2000/svg" viewBox="0 0 60.133 54.375" id="good-credit-score">
    <g fill="#1caffd">
      <path d="M59.173 0H.96A.96.96 0 0 0 0 .96v52.456a.96.96 0 0 0 .96.96h58.213a.96.96 0 0 0 .96-.96V43.18a.96.96 0 0 0-1.919 0v9.276H1.919V9.6h56.295v29.742a.96.96 0 1 0 1.919 0V.96a.96.96 0 0 0-.96-.96zM1.919 1.919h35.5v5.757h-35.5zm37.423 5.757V1.919h18.872v5.757z"></path>
      <path d="M48.81 3.774a1.024 1.024 0 1 0 1.024 1.024 1.025 1.025 0 0 0-1.024-1.024zm-5.245 0a1.024 1.024 0 1 0 1.024 1.024 1.025 1.025 0 0 0-1.024-1.024zm10.491 0a1.024 1.024 0 1 0 1.023 1.024 1.025 1.025 0 0 0-1.023-1.024zM37.815 32.661a.96.96 0 0 0-1.357 0l-5.151 5.151a2.88 2.88 0 1 0 1.357 1.357l5.151-5.151a.96.96 0 0 0 0-1.357zm-7.748 8.708a.96.96 0 1 1 .96-.96.961.961 0 0 1-.96.96z"></path>
      <path d="M42.948 40.409a.96.96 0 0 0 .96.96h6.848a.96.96 0 0 0 .96-.96v-.072a21.574 21.574 0 0 0-6.246-15.123.871.871 0 0 0-.2-.2 21.606 21.606 0 0 0-30.393 0 .97.97 0 0 0-.11.093.96.96 0 0 0-.093.11 21.575 21.575 0 0 0-6.247 15.2.96.96 0 0 0 .96.96h6.845a.96.96 0 0 0 .96-.96 12.882 12.882 0 0 1 25.763 0zM20.304 29.293l-3.484-3.489a19.649 19.649 0 0 1 12.284-5.1v4.934a14.739 14.739 0 0 0-8.8 3.655zm10.722-8.589a19.65 19.65 0 0 1 12.287 5.1l-3.487 3.487a14.739 14.739 0 0 0-8.8-3.652zm13.81 18.743a14.739 14.739 0 0 0-3.653-8.8l3.487-3.487a19.651 19.651 0 0 1 5.1 12.287h-4.934zm-29.539 0h-4.934a19.651 19.651 0 0 1 5.1-12.287l3.487 3.487a14.74 14.74 0 0 0-3.653 8.803z"></path>
    </g>
  </symbol></defs>
                    <use xlink:href="#good-credit-score"></use>
                </svg>