<svg xmlns:xlink="http://www.w3.org/1999/xlink" xmlns="http://www.w3.org/2000/svg" class="icon40" width="58.65"  height="58.65" ><defs><symbol xmlns="http://www.w3.org/2000/svg" viewBox="0 0 58.65 58.65" id="valid-bank-account">
    <g fill="#1caffd">
      <path d="M31.217 16.082h-1.892v-4.73h1.892V5.119L22.006 0h-2.385l-9.215 5.119v6.233h1.892v4.73h-1.892v5.676h20.811zM20.106 1.892h1.4l6.81 3.784H13.301zm-7.808 5.676h17.028V9.46H12.298zm15.136 3.784v4.73h-1.892v-4.73zm-3.784 0v4.73h-1.892v-4.73zm-3.784 0v4.73h-1.892v-4.73zm-3.784 0v4.73H14.19v-4.73zm13.244 8.514H12.298v-1.893h17.028zm10.405 6.621h1.892V7.568h-8.514V9.46h6.622z"></path>
      <path d="M39.731 56.759H9.46v-7.568H1.892V9.46h6.622V7.568H0v42.96l8.122 8.122h33.5v-7.568h-1.891zM7.568 55.421L3.23 51.083h4.338z"></path>
      <path d="M34.057 26.487a12.3 12.3 0 1 0 12.3 12.3 12.312 12.312 0 0 0-12.3-12.3zm0 22.7a10.406 10.406 0 1 1 10.4-10.4 10.418 10.418 0 0 1-10.4 10.4z"></path>
      <path d="M32.163 34.055h3.784a1.894 1.894 0 0 1 1.892 1.892h1.892a3.788 3.788 0 0 0-3.784-3.784h-.946v-1.892h-1.892v1.892h-.946a3.784 3.784 0 1 0 0 7.568h3.784a1.892 1.892 0 0 1 0 3.784h-3.784a1.894 1.894 0 0 1-1.892-1.892h-1.892a3.788 3.788 0 0 0 3.784 3.784h.946v1.892h1.892v-1.892h.946a3.784 3.784 0 0 0 0-7.568h-3.784a1.892 1.892 0 1 1 0-3.784zm23.433-2.838l-2.026 2.838h-6.271v1.892h4.916l-.959 1.342 1.539 1.1 5.122-7.171-5.122-7.171-1.539 1.1.959 1.342h-8.7v1.892H53.57zm3.054 12.298v-1.892h-7.757l.958-1.342-1.539-1.1-5.122 7.171 5.122 7.171 1.539-1.1-.958-1.342h7.757v-1.892h-9.109l-2.027-2.838 2.027-2.838zm-37.839 0v-1.892h-4.919l.958-1.342-1.539-1.1-5.122 7.171 5.122 7.171 1.539-1.1-.958-1.342h9.649v-1.892h-11l-2.027-2.838 2.027-2.838zm-4.551-6.221l1.539 1.1 5.122-7.171-5.122-7.171-1.539 1.1.959 1.342H9.46v1.892h9.109l2.026 2.838-2.026 2.838H9.46v1.892h7.757z"></path>
    </g>
  </symbol></defs>
                    <use xlink:href="#valid-bank-account"></use>
                </svg>