<svg xmlns:xlink="http://www.w3.org/1999/xlink" xmlns="http://www.w3.org/2000/svg" class="icon40" width="54.375"  height="54.375" ><defs><symbol xmlns="http://www.w3.org/2000/svg" viewBox="0 0 54.375 54.375" id="profession">
    <path d="M40.782 20.844v.906a1.813 1.813 0 1 1-3.625 0v-.906h-1.813v.906a3.625 3.625 0 1 0 7.25 0v-.906zM34.438 14.5a2.719 2.719 0 0 0-2.719 2.719v.906h1.813v-.906a.907.907 0 0 1 1.813 0v.906h1.813v-.906a2.719 2.719 0 0 0-2.72-2.719zm9.062 0a2.719 2.719 0 0 0-2.719 2.719v.906h1.813v-.906a.907.907 0 0 1 1.813 0v.906h1.813v-.906A2.719 2.719 0 0 0 43.5 14.5z" fill="#1caffd"></path>
    <path d="M48.031 29H43.5v-1a10.79 10.79 0 0 0 6.189-8.066h1.061a2.719 2.719 0 0 0 0-5.438h-.906V0H36.25a8.165 8.165 0 0 0-8.156 8.156V14.5h-.906a2.719 2.719 0 0 0 0 5.438h1.061A10.79 10.79 0 0 0 34.438 28v1h-4.532a6.351 6.351 0 0 0-6.344 6.344v.906h-5.437v-.906a2.719 2.719 0 0 0-2.719-2.719h-3.625a2.719 2.719 0 0 0-2.719 2.719v.906H.906a.906.906 0 0 0-.906.906v16.313a.906.906 0 0 0 .906.906h52.563a.906.906 0 0 0 .906-.906V35.344A6.351 6.351 0 0 0 48.031 29zm1.813-12.688h.906a.906.906 0 1 1 0 1.813h-.906zm-21.75 1.813h-.906a.906.906 0 1 1 0-1.813h.906zm18.125 12.688L42.5 35.777l-.168-.168-2.082-2.078 2.719-2.719zm-5.813 5.437l-.906.906h-1.062l-.906-.906 1.437-1.437zm-2.875-5.438h2.875l-1.437 1.438zM29.906 8.156a6.351 6.351 0 0 1 6.344-6.343h11.781V7.25h-8.156v.906a2.719 2.719 0 0 1-2.719 2.719h-7.25zm0 9.969v-5.437h7.25A4.539 4.539 0 0 0 41.6 9.063h6.434v9.063a9.009 9.009 0 0 1-5.767 8.435.906.906 0 0 0-.576.844V29H36.25v-1.6a.906.906 0 0 0-.576-.844 9.009 9.009 0 0 1-5.768-8.431zm5.062 12.688l2.719 2.719-2.078 2.078-.168.168-3.723-4.964zm-24.093 4.531a.906.906 0 0 1 .906-.906h3.625a.906.906 0 0 1 .906.906v.906h-5.437zm14.5 17.219H1.813v-6.344h9.063v2.719a.906.906 0 0 0 .906.906h3.625a.906.906 0 0 0 .906-.906v-2.719h9.063zm-12.687-4.532v-1.812H14.5v1.813zm12.688-3.625H1.813v-6.343h23.562zm1.813 8.156V37.156a.906.906 0 0 0-.906-.906h-.906v-.906a4.522 4.522 0 0 1 4.11-4.489l5.132 6.845a.906.906 0 0 0 .661.363h.064a.906.906 0 0 0 .641-.266l.266-.266.842.842-1.736 10.415a.906.906 0 0 0 .169.693l2.311 3.081zM37.208 48.7l1.622-9.735h.277L40.73 48.7l-1.761 2.348zm15.355 3.859H40.1l2.311-3.081a.906.906 0 0 0 .169-.693l-1.734-10.411.842-.842.266.266a.906.906 0 0 0 .641.266h.064a.906.906 0 0 0 .661-.363l5.134-6.845a4.522 4.522 0 0 1 4.11 4.489z" fill="#1caffd"></path>
  </symbol></defs>
                    <use xlink:href="#profession"></use>
                </svg>