<svg xmlns:xlink="http://www.w3.org/1999/xlink" xmlns="http://www.w3.org/2000/svg" class="icon40" width="36.651"  height="54.375" ><defs><symbol xmlns="http://www.w3.org/2000/svg" viewBox="0 0 36.651 54.375" id="individual-age">
    <path d="M35.853 44.057a.8.8 0 0 0-.8.8v7.489a.44.44 0 0 1-.44.44h-4.282V37.1a.8.8 0 1 0-1.593 0v15.682h-8.622l2.5-2.751a1.428 1.428 0 0 0 .345-1.146v-.024L20.58 34.793l.642-.966a1.806 1.806 0 0 0 1.14.494 1.4 1.4 0 0 0 1.248-.772l2.512-5.034 5.722 2.216a5.519 5.519 0 0 1 3.213 5.017v5.388a.8.8 0 0 0 1.593 0v-5.387a7.109 7.109 0 0 0-4.2-6.492l-.015-.006-9.523-3.688v-2.234a7.463 7.463 0 0 0 2.825-4.909 3.448 3.448 0 0 0 2.025-.826 3.382 3.382 0 0 0 .353-4.772v-2.95a9.872 9.872 0 1 0-19.743 0V12.9a3.2 3.2 0 0 0-.821 2.132 3.375 3.375 0 0 0 1.174 2.563 3.446 3.446 0 0 0 2.024.826 7.384 7.384 0 0 0 2.986 5.027v2.116l-9.513 3.688-.015.006a7.109 7.109 0 0 0-4.2 6.492v16.592a2.035 2.035 0 0 0 2.033 2.033h7.589a.8.8 0 0 0 0-1.593H7.908V37.1a.8.8 0 1 0-1.593 0v15.682H2.033a.44.44 0 0 1-.44-.44V35.749a5.519 5.519 0 0 1 3.212-5.016l5.717-2.216 2.512 5.034a1.4 1.4 0 0 0 1.249.772 1.805 1.805 0 0 0 1.14-.494l.642.966-2.381 14.067v.024a1.428 1.428 0 0 0 .345 1.146l2.5 2.751h-3.19a.8.8 0 0 0 0 1.593h21.279a2.035 2.035 0 0 0 2.033-2.033v-7.489a.8.8 0 0 0-.798-.797zM24.631 27.938l-2.342 4.693-2.816-2 2.892-3.57zM19.923 32.9l-.607.914H17.33l-.607-.914 1.6-1.137zm-4.6-7.085v-1.486a8.082 8.082 0 0 0 3.012.571 7.478 7.478 0 0 0 2.979-.621v1.547l-2.993 3.694zm12.015-10.788a1.785 1.785 0 0 1-.62 1.354 1.855 1.855 0 0 1-.92.423v-3.55a1.8 1.8 0 0 1 1.542 1.778zm-16.66 1.778a1.8 1.8 0 0 1-1.54-1.778 1.892 1.892 0 0 1 1.54-1.737zm.043-5.138a3.938 3.938 0 0 0-.761.172V9.872a8.279 8.279 0 1 1 16.557 0v1.916a3.541 3.541 0 0 0-.718-.139c0-.769.007-.62-2.508-3.323a1.417 1.417 0 0 0-1.809-.221 15.357 15.357 0 0 1-9.284 2.5 1.416 1.416 0 0 0-1.476 1.066zm1.55 5.765v-5.227a17.021 17.021 0 0 0 9.955-2.685c1.153 1.238 1.778 1.888 1.979 2.135v5.782a5.968 5.968 0 0 1-11.934 0zm2.082 15.199l-2.342-4.693 2.261-.876 2.893 3.571zm.914 16.4l2.306-13.622h1.494l2.306 13.622-3.053 3.358z" fill="#1caffd"></path>
  </symbol></defs>
                    <use xlink:href="#individual-age"></use>
                </svg>