<svg xmlns:xlink="http://www.w3.org/1999/xlink" xmlns="http://www.w3.org/2000/svg" class="icon40" width="60.47"  height="44.345" ><defs><symbol xmlns="http://www.w3.org/2000/svg" viewBox="0 0 60.47 44.345" id="id-card">
    <g transform="translate(0 -8)" fill="#1caffd">
      <path d="M56.22 8H4.25A4.255 4.255 0 0 0 0 12.25v35.845a4.255 4.255 0 0 0 4.25 4.25h51.97a4.255 4.255 0 0 0 4.25-4.25V12.25A4.255 4.255 0 0 0 56.22 8zm-53.2 8.063a1.008 1.008 0 0 0 1.008-1.008h4.035a1.008 1.008 0 0 0 2.016 0h4.031a1.008 1.008 0 0 0 2.016 0h4.031a1.008 1.008 0 0 0 2.016 0H26.2a1.008 1.008 0 1 0 2.016 0h4.031a1.008 1.008 0 0 0 2.016 0H38.3a1.008 1.008 0 1 0 2.016 0h4.031a1.008 1.008 0 0 0 2.016 0h4.031a1.008 1.008 0 0 0 2.016 0h4.031a1.008 1.008 0 0 0 2.016 0V21.1a1.008 1.008 0 0 0-2.016 0h-4.033a1.008 1.008 0 0 0-2.016 0h-4.031a1.008 1.008 0 0 0-2.016 0h-4.032a1.008 1.008 0 1 0-2.016 0h-4.031a1.008 1.008 0 1 0-2.016 0h-4.031a1.008 1.008 0 1 0-2.016 0h-4.031a1.008 1.008 0 0 0-2.016 0h-4.031a1.008 1.008 0 0 0-2.016 0h-4.031a1.008 1.008 0 1 0-2.016 0H4.031a1.008 1.008 0 0 0-2.016 0v-6.045a1.008 1.008 0 0 0 1.009 1.008zm55.435 32.032a2.236 2.236 0 0 1-2.234 2.234H4.25a2.236 2.236 0 0 1-2.234-2.234V23.118h56.439zM2.016 13.039v-.789a2.236 2.236 0 0 1 2.234-2.234h51.97a2.236 2.236 0 0 1 2.234 2.234v.789z"></path>
      <path d="M51.046 47.305h4.385V25.133H33.259v22.172h17.787zm-11.74-2.016v-.005a1.181 1.181 0 0 1 .586-1.03l2.6-1.28a1.517 1.517 0 0 0 .848-1.366v-1.432l-.609-.263a3.242 3.242 0 0 1-1.833-2.339l-.144-.537-.53-.165a.339.339 0 0 1-.242-.315v-.672a.337.337 0 0 1 .185-.291l.474-.252.056-.534a5.865 5.865 0 0 1 .394-1.634c.087-.213.16-.371.221-.5a2.812 2.812 0 0 0 .285-.862 5.258 5.258 0 0 0 2.459.36q.144-.012.293-.012c2.942 0 3.5 1.344 3.65 2.659l.062.526.469.248a.336.336 0 0 1 .186.292v.672a.339.339 0 0 1-.242.315l-.53.165-.144.537a3.24 3.24 0 0 1-1.833 2.339l-.613.263v1.439a1.518 1.518 0 0 0 .83 1.358l2.54 1.3a1.19 1.19 0 0 1 .66 1.022H39.306zm-4.031-18.14h18.141V45.29h-2.019a3.2 3.2 0 0 0-1.768-2.823l-2.135-1.089a5.191 5.191 0 0 0 2.11-2.823 2.331 2.331 0 0 0 1.124-2v-.672a2.338 2.338 0 0 0-.8-1.759c-.36-1.913-1.658-3.982-5.583-3.982a5.63 5.63 0 0 0-.454.018 3.077 3.077 0 0 1-1.952-.441 2.285 2.285 0 0 1-.54-.465 1.142 1.142 0 0 0-2.032.835c.029.259.074.561.14.893a2.84 2.84 0 0 1 .087.577c-.009.035-.067.16-.113.261a12.08 12.08 0 0 0-.259.587 7.605 7.605 0 0 0-.475 1.733 2.334 2.334 0 0 0-.784 1.743v.672a2.333 2.333 0 0 0 1.124 2 5.193 5.193 0 0 0 2.1 2.815l-2.222 1.1a3.209 3.209 0 0 0-1.675 2.819v.005h-2.015zM6.047 29.165h9.071a1.008 1.008 0 0 0 0-2.016H6.047a1.008 1.008 0 0 0 0 2.016zm13.102 0h9.071a1.008 1.008 0 1 0 0-2.016h-9.071a1.008 1.008 0 0 0 0 2.016zM6.047 34.204h1.008a1.008 1.008 0 1 0 0-2.016H6.047a1.008 1.008 0 1 0 0 2.016zm7.055 0a1.008 1.008 0 1 0 0-2.016h-2.016a1.008 1.008 0 1 0 0 2.016zm4.031 0h1.008a1.008 1.008 0 0 0 0-2.016h-1.008a1.008 1.008 0 1 0 0 2.016zm7.056 0a1.008 1.008 0 1 0 0-2.016h-2.016a1.008 1.008 0 0 0 0 2.016zm3.315-1.724a1.022 1.022 0 0 0 0 1.431 1.012 1.012 0 1 0 0-1.431zm-15.761 5.149c-2.207 1.149-2.951 3.347-3.221 5.626l-1.251-1.047c-.988-.827-2.421.591-1.425 1.425l2.828 2.369a1.021 1.021 0 0 0 1.72-.713c.074-2.183.176-4.779 2.366-5.919 1.151-.598.133-2.341-1.017-1.741z"></path>
      <path d="M25.097 40.626c-1.469-.093-3.62 2.172-4.753.154a1.02 1.02 0 0 0-1.379-.362c-1.427.876-3.293 2.136-4.793.5-.88-.956-2.3.472-1.425 1.425 1.885 2.049 4.31 1.425 6.449.265a3.311 3.311 0 0 0 1.851 1.089c.8.161 4.057-1.15 4.233-.908.758 1.037 2.507.032 1.741-1.018a2.327 2.327 0 0 0-1.924-1.145z"></path>
      <circle cx="1.008" cy="1.008" r="1.008" transform="translate(41.321 17.071)"></circle>
      <circle cx="1.008" cy="1.008" r="1.008" transform="translate(47.368 17.071)"></circle>
      <circle cx="1.008" cy="1.008" r="1.008" transform="translate(23.18 17.071)"></circle>
      <circle cx="1.008" cy="1.008" r="1.008" transform="translate(29.227 17.071)"></circle>
      <circle cx="1.008" cy="1.008" r="1.008" transform="translate(35.274 17.071)"></circle>
      <circle cx="1.008" cy="1.008" r="1.008" transform="translate(53.415 17.071)"></circle>
      <circle cx="1.008" cy="1.008" r="1.008" transform="translate(17.133 17.071)"></circle>
      <circle cx="1.008" cy="1.008" r="1.008" transform="translate(5.039 17.071)"></circle>
      <circle cx="1.008" cy="1.008" r="1.008" transform="translate(11.086 17.071)"></circle>
    </g>
  </symbol></defs>
                    <use xlink:href="#id-card"></use>
                </svg>