<svg xmlns:xlink="http://www.w3.org/1999/xlink" xmlns="http://www.w3.org/2000/svg" class="icon40" width="41.257"  height="54.345" ><defs><symbol xmlns="http://www.w3.org/2000/svg" viewBox="0 0 41.257 54.345" id="salary-slip">
    <path d="M40.993 8.416l-8.07-8.15A.887.887 0 0 0 32.288 0h-27.8A4.512 4.512 0 0 0 0 4.529v45.287a4.512 4.512 0 0 0 4.484 4.529h32.289a4.512 4.512 0 0 0 4.484-4.529V9.057a.9.9 0 0 0-.264-.641zm-7.808-5.324l5.01 5.06h-5.01zm6.278 46.724a2.707 2.707 0 0 1-2.691 2.717H4.484a2.707 2.707 0 0 1-2.691-2.717V4.529a2.707 2.707 0 0 1 2.691-2.717h26.907v7.245a.9.9 0 0 0 .9.906h7.175z" fill="#1caffd"></path>
    <path d="M8.647 12.562a3.843 3.843 0 1 0 3.843 3.843 3.847 3.847 0 0 0-3.843-3.843zm0 5.765a1.922 1.922 0 1 1 1.922-1.922 1.924 1.924 0 0 1-1.922 1.922zm0 4.105a3.843 3.843 0 1 0 3.843 3.843 3.847 3.847 0 0 0-3.843-3.843zm0 5.765a1.922 1.922 0 1 1 1.922-1.922 1.924 1.924 0 0 1-1.922 1.922zm0 4.105a3.843 3.843 0 1 0 3.843 3.843 3.847 3.847 0 0 0-3.843-3.843zm0 5.765a1.922 1.922 0 1 1 1.922-1.922 1.924 1.924 0 0 1-1.922 1.922zm0 3.787a3.843 3.843 0 1 0 3.843 3.843 3.847 3.847 0 0 0-3.843-3.843zm0 5.765a1.922 1.922 0 1 1 1.922-1.922 1.924 1.924 0 0 1-1.922 1.922z" fill="#1caffd"></path>
    <path fill="#1caffd" d="M11.472 17.173h24.981v1.922H11.472zm2.431-12.369h13.451v1.922H13.903zM11.02 8.647h19.216v1.922H11.02zm.452 18.468h24.981v1.922H11.472zm0 9.943h24.981v1.922H11.472zm0 9.6h24.981v1.922H11.472zm9.09-33.1h1.922v1.922h-1.922zm-3.576 0h1.922v1.922h-1.922zm-3.576 0h1.922v1.922H13.41z"></path>
  </symbol></defs>
                    <use xlink:href="#salary-slip"></use>
                </svg>