<svg xmlns:xlink="http://www.w3.org/1999/xlink" xmlns="http://www.w3.org/2000/svg" class="icon40" width="54.345"  height="54.345" ><defs><symbol xmlns="http://www.w3.org/2000/svg" viewBox="0 0 54.345 54.345" id="bank-statement">
    <path d="M54.334 9.908a.881.881 0 0 0-.047-.236c-.01-.029-.017-.056-.03-.084a.891.891 0 0 0-.181-.265L45.019.265a.907.907 0 0 0-.265-.181c-.029-.012-.057-.02-.086-.03a.868.868 0 0 0-.231-.047c-.017 0-.035-.008-.055-.008H20.833a.906.906 0 0 0-.906.906v26.267h1.811V1.811h21.738v8.152a.906.906 0 0 0 .906.906h8.152V47.1h-12.68v1.81H53.44a.906.906 0 0 0 .906-.906V9.963c-.001-.019-.011-.036-.012-.055zm-9.046-.85V3.092l5.965 5.965zm0 0" fill="#1caffd"></path>
    <path d="M25.361 14.492H36.23a.906.906 0 0 0 .906-.906v-6.34a.906.906 0 0 0-.619-.86l-5.436-1.815a.907.907 0 0 0-.572 0l-5.434 1.812a.906.906 0 0 0-.62.86v6.34a.906.906 0 0 0 .906.909zm.906-4.529h1.812v2.717h-1.812zm5.435 0v2.717H29.89V9.963zm1.811 2.717V9.963h1.812v2.717zm-7.246-4.782l4.529-1.51 4.529 1.51v.253h-9.058zm-1.812 19.274h15.4v18.115h9.057a.906.906 0 0 0 .906-.906v-25.36a.906.906 0 0 0-.906-.906H25.361a.906.906 0 0 0-.906.906zm1.811-1.811v-1.812h13.587v1.812zm15.4-1.812h6.34v1.812h-6.34zm6.34 3.623v1.812h-6.34v-1.812zm-6.34 10.869h6.34v1.815h-6.34zm0-1.812v-1.811h6.34v1.811zm0-3.623v-1.81h6.34v1.812zm0 10.869v-1.812h6.34v1.812zm6.34-23.549v1.811h-6.34v-1.811zm-8.152 0v1.811H26.266v-1.811zm-.907-7.243h9.963v1.812h-9.963zm0-3.625h2.717v1.811h-2.717zm0 0" fill="#1caffd"></path>
    <path d="M4.529 54.345h28.984a4.534 4.534 0 0 0 4.529-4.528V33.508a4.534 4.534 0 0 0-4.529-4.528H4.529A4.534 4.534 0 0 0 0 33.508v16.3a4.534 4.534 0 0 0 4.529 4.537zM1.811 33.508a2.717 2.717 0 0 1 2.718-2.717h28.984a2.717 2.717 0 0 1 2.717 2.717v16.3a2.718 2.718 0 0 1-2.717 2.717H4.529a2.718 2.718 0 0 1-2.718-2.717zm0 0" fill="#1caffd"></path>
    <path d="M4.529 39.854h5.434a.906.906 0 0 0 .906-.906v-5.435a.906.906 0 0 0-.906-.905H4.529a.906.906 0 0 0-.906.905v5.435a.906.906 0 0 0 .906.906zm.906-5.435h3.623v3.623H5.434zm-.906 7.246h3.623v1.812H4.529zm0 3.622h3.623v1.811H4.529zm16.304 0h3.623v1.811h-3.623zM9.964 41.665h3.623v1.812H9.964zm5.434 0h3.618v1.812h-3.623zm5.435 0h3.623v1.812h-3.623zm5.433 0h3.623v1.812h-3.623zm5.435-8.152h1.811v1.812h-1.811zm-3.623 0h1.811v1.812h-1.811zm-3.623 0h1.811v1.812h-1.811zm-3.622 0h1.811v1.812h-1.811zm6.342 11.774a.906.906 0 0 0-.906.906v3.623a.906.906 0 0 0 .906.905h6.34a.906.906 0 0 0 .906-.905v-3.623a.906.906 0 0 0-.906-.906zm5.435 3.623h-4.535v-1.812h4.529zm0 0" fill="#1caffd"></path>
  </symbol></defs>
                    <use xlink:href="#bank-statement"></use>
                </svg>