<svg xmlns:xlink="http://www.w3.org/1999/xlink" xmlns="http://www.w3.org/2000/svg" class="icon40" width="59.145"  height="54.375" ><defs><symbol xmlns="http://www.w3.org/2000/svg" viewBox="0 0 59.145 54.375" id="resident">
    <g fill="#1caffd">
      <path d="M58.191 31.481H41.974V14.31h4.77a.954.954 0 0 0 .559-1.728L30.131.181a.954.954 0 0 0-1.118 0l-17.171 12.4a.954.954 0 0 0 .559 1.728h4.77v17.172H.954a.954.954 0 0 0-.954.954v20.986a.954.954 0 0 0 .954.954h57.237a.954.954 0 0 0 .954-.954V32.435a.954.954 0 0 0-.954-.954zm-.954 1.908v4.77h-8.586a.954.954 0 0 0-.954.954v13.354h-5.723V33.389zM34.342 52.467H24.8v-12.4h9.539zm.958-14.309H23.849a.954.954 0 0 0-.954.954v13.355h-3.816V33.389h20.987v19.078H36.25V39.112a.954.954 0 0 0-.95-.954zM29.572 2.131l14.221 10.27H15.352zM19.079 14.31h20.987v17.171H19.079zm-1.908 19.079v19.078h-5.724V39.112a.954.954 0 0 0-.954-.954H1.908v-4.77zM1.908 40.066h7.631v12.4H1.908zm47.7 12.4v-12.4h7.632v12.4zm0 0"></path>
      <path d="M35.295 19.08a.954.954 0 1 0 0-1.908H23.849a.954.954 0 1 0 0 1.908v7.632a.954.954 0 1 0 0 1.908h11.446a.954.954 0 1 0 0-1.908zm-1.908 2.862h-2.862V19.08h2.862zm-4.77-2.862v2.862h-2.862V19.08zm-2.862 4.77h2.862v2.862h-2.862zm4.77 2.862V23.85h2.862v2.862zm0 0"></path>
    </g>
  </symbol></defs>
                    <use xlink:href="#resident"></use>
                </svg>